<svg xmlns="http://www.w3.org/2000/svg" width="169" height="32" viewBox="0 0 169 32">
    <g fill="none">
        <path fill="#FFF" d="M160.95 7.737H161.95V8.737H160.95zM84.658 16.824a746.566 746.566 0 019.87-1.802l13.87-11.048V.764H84.81v4.128h14.678l-14.83 11.733v.2zM94.46 16.07a806.353 806.353 0 00-9.762 1.767l-.042.006-.004 2.453h23.829v-4.232l-14.021.006zM83.768 16.995l.042-.009V.763h-5.334c.007 3.198.011 8.953.013 17.262 1.8-.357 3.528-.695 5.28-1.03M78.531 19.029l-.044.009v1.258h5.32v-2.293c-1.834.349-3.61.693-5.276 1.026M22.95 10.53c0 9.168 10.74 10.283 14.821 10.283 4.083 0 14.823-1.115 14.823-10.284 0-9.168-10.74-10.284-14.823-10.284-4.08 0-14.82 1.116-14.82 10.284m5.342 0c0-5.466 6-6.61 9.478-6.61 3.48 0 9.459 1.144 9.459 6.61 0 5.469-5.98 6.571-9.459 6.571-3.479 0-9.478-1.1-9.478-6.57"/>
        <path fill="#FED420" d="M113.448 12.092l16.49-2.012 6.427-.798C135.61 1.035 125.517 0 121.59 0c-4.081 0-14.821 1.116-14.821 10.284 0 .942.12 1.845.292 2.59l6.387-.782z"/>
        <path fill="#FFF" d="M129.99 11.097l-10.145 1.251-6.244.763-6.272.77c2.262 6.117 10.742 6.95 14.263 6.95 4.081 0 14.821-1.118 14.821-10.284 0-.08-.002-.158-.004-.237l-6.42.787zM5.255 20.296H.205L.212.763h5.04v7.013h12.03V.763h5.094c0 9.733.004 16.245.013 19.533h-5.108v-8.303H5.255v8.303zM70.853 19.61c.68-.15 2.538-.546 5.208-1.094l-5.5-5.486h.575c3.518-.324 6.536-2.5 6.2-6.744-.058-.73-.198-1.758-.912-2.729C74.575.757 70.606.78 70.606.78h-1.923c-.338-.013-.69-.02-1.057-.02H53.045c.01 2.168.02 8.68.02 19.534h5.28V13.03h5.745s.003-.002 6.624 6.61l.139-.03zM58.346 9.234V4.565l9.113.01c5.022-.06 4.917 1.726 4.938 2.103.115 1.93-1.37 2.538-4.929 2.556h-9.122zM76.903 19.356l-.145.03c-1.519.31-2.974.614-4.347.91h5.43l-.938-.94zM6.839 25.749L1.387 25.749 1.387 23.04 0 23.04 0 29.799 1.387 29.799 1.387 26.702 6.839 26.702 6.839 29.799 8.228 29.799 8.228 23.04 6.839 23.04zM159.414 23.04L156.502 25.986 153.66 23.04 151.955 23.04 155.823 26.959 155.823 29.799 157.21 29.799 157.21 26.915 161.143 23.04z"/>
        <path fill="#FFF" d="M70.712 19.64a681.134 681.134 0 00-23.271 5.37c-.681-1.358-2.338-2.134-4.589-2.134-1.69 0-3.04.458-3.905 1.328a3.061 3.061 0 00-.917 2.227c0 .333.049.655.148.962a569.02 569.02 0 00-10.43 2.86v.002c-.104.027-.405.11-1.405.4l-.266.076.132.243c.084.154.165.318.24.491l.077.18.189-.055 3.065-.89c2.85-.795 5.833-1.604 8.864-2.402.804 1.078 2.305 1.67 4.248 1.67 2.962 0 4.876-1.39 4.876-3.537 0-.156-.01-.31-.03-.458a703.21 703.21 0 0123.686-5.46l.266-.055-.978-.817zM46.14 25.338a653.243 653.243 0 00-6.648 1.707 2.551 2.551 0 01-.073-.613c0-1.258.91-2.6 3.462-2.6 1.613-.002 2.782.544 3.259 1.506zm.242 1.091c0 1.907-1.796 2.585-3.473 2.585-1.36 0-2.371-.366-2.956-1.059 2.15-.559 4.308-1.111 6.426-1.644.003.04.003.079.003.118zM84.038 26.183c.56-.272.877-.739.877-1.333 0-.826-.604-1.808-3.49-1.808h-3.823v6.76h4.294c2.307 0 3.479-.673 3.479-2.001-.003-.761-.477-1.324-1.337-1.618m-.054 1.613c0 .824-.607 1.05-2.822 1.05h-2.174v-2.065h2.284c1.978 0 2.712.277 2.712 1.015m-.455-2.948c0 .294 0 .98-2.38.98H78.99v-1.835h1.952c2.154 0 2.587.327 2.587.855M121.847 26.183c.56-.272.877-.739.877-1.335 0-.824-.607-1.808-3.492-1.808h-3.822v6.76h4.294c2.308 0 3.477-.673 3.477-2.004 0-.756-.475-1.32-1.334-1.613zm-5.05-2.19h1.951c2.156 0 2.59.327 2.59.855 0 .485-.284.98-2.38.98h-2.161v-1.835zm0 2.788h2.283c1.978 0 2.712.277 2.712 1.015 0 .822-.606 1.048-2.824 1.048h-2.171V26.78zM160.585 7.691h.011V.763h-5.057l-.046 7.116c1.928-.096 3.644-.16 5.092-.188M155.498 8.894h-.014l-.035 5.184-4.415-4.92-.176.01c-1.861.12-3.775.254-5.692.397l9.663 10.718h5.78c-.006-2.004-.013-5.876-.013-11.621-.98.033-2.659.1-5.098.232M143.505.763h-6.342l-.003 8.475c.431-.04 2.477-.228 5.334-.462l.02-.002.013-2.14 1.798 1.993.171-.013c1.978-.156 3.888-.296 5.681-.417L143.505.763zM137.178 10.207l-.02.002-.006 10.076 5.36-.013-.007-10.503c-1.833.144-3.576.287-5.327.438"/>
        <path fill="#FFF" d="M168.765 7.496c-2.835.037-5.584.103-8.178.195l.016.97a401.86 401.86 0 018.15-.188l.216-.002.005-.215c.004-.177.008-.355.015-.53l.009-.234-.233.004zM164.453 3.14h.253c.296 0 .536-.098.536-.337 0-.212-.154-.355-.494-.355-.143 0-.24.016-.297.029v.664h.002zm-.015 1.296h-.537v-2.31c.214-.028.508-.07.888-.07.44 0 .638.07.791.182a.58.58 0 01.242.49c0 .284-.213.468-.481.55v.03c.226.07.338.251.409.56.072.356.127.48.169.564h-.565c-.07-.084-.112-.283-.182-.564-.044-.238-.183-.352-.48-.352h-.254v.92zm.353-3.044c-1.002 0-1.777.833-1.777 1.845 0 1.028.775 1.846 1.806 1.846 1.004.015 1.767-.818 1.767-1.83 0-1.028-.763-1.861-1.78-1.861h-.016zm.03-.465c1.313 0 2.36 1.015 2.36 2.31 0 1.298-1.045 2.326-2.374 2.326-1.328 0-2.389-1.028-2.389-2.326 0-1.295 1.061-2.31 2.389-2.31h.013z"/>
    </g>
</svg>
